<svg width="90" height="69" viewBox="0 0 90 69" fill="none" xmlns="http://www.w3.org/2000/svg">
<path d="M80.2961 14.5818L54.0338 13.1064L53.8371 10.1555C53.542 4.54898 48.7223 0.221108 43.0174 0.51619L9.67311 2.38504C4.06656 2.68012 -0.261314 7.59816 0.0337682 13.2047L1.90262 46.6473V47.4342C2.59115 52.549 6.91902 56.385 12.0338 56.385H12.6239L33.9682 55.2047V55.7949C33.6731 61.4014 37.9026 66.3195 43.6075 66.6146L77.0502 68.5818H77.6403C83.0502 68.5818 87.5748 64.3523 87.8698 58.9424L89.8371 25.4998C90.2305 19.7949 85.9026 14.9752 80.2961 14.5818ZM4.06656 7.10636C5.54197 5.43422 7.60754 4.45062 9.77147 4.35226L43.2141 2.4834C47.7387 2.18832 51.6731 5.72931 51.9682 10.2539L52.1649 13.008L46.9518 12.7129C41.3452 12.4178 36.4272 16.6473 36.1321 22.3523L35.542 31.6965L26.1977 42.2211C26.001 42.5162 25.6075 42.6146 25.2141 42.7129C24.8207 42.7129 24.5256 42.6146 24.2305 42.3195L16.5584 35.4342C15.1813 34.1555 13.1157 34.3523 11.837 35.7293L3.86983 44.6801L2.09934 13.2047C1.90262 10.9424 2.68951 8.77849 4.06656 7.10636ZM12.6239 54.3195C8.39442 54.5162 4.65672 51.5654 3.96819 47.3359L13.2141 37.008C13.4108 36.7129 13.8043 36.6146 14.1977 36.5162C14.5911 36.5162 14.8862 36.6146 15.1813 36.9096L22.8534 43.7949C23.542 44.385 24.4272 44.6801 25.3125 44.6801C26.1977 44.6801 26.9846 44.1883 27.5748 43.5982L35.2469 34.9424L34.1649 53.2375L12.6239 54.3195ZM87.8698 25.3031L85.9026 58.7457C85.6075 63.2703 81.6731 66.8113 77.1485 66.5162L43.7059 64.549C39.1813 64.2539 35.6403 60.3195 35.9354 55.7949L37.9026 22.3523C38.1977 18.0244 41.7387 14.5818 46.1649 14.5818H46.6567L80.0993 16.549C84.7223 16.8441 88.1649 20.7785 87.8698 25.3031Z" fill="#5C5C7B"/>
</svg>
